HIERARCHY
ROOT Hips
{
	OFFSET 0.000000 0.000000 0.000000
	CHANNELS 6 Xposition Yposition Zposition Xrotation Yrotation Zrotation
	JOINT Chest
	{
		OFFSET 0.000000 0.009282 11.569106
		CHANNELS 3 Xrotation Yrotation Zrotation
		JOINT Chest2
		{
			OFFSET 0.000000 -0.016863 9.269641
			CHANNELS 3 Xrotation Yrotation Zrotation
			JOINT Chest3
			{
				OFFSET 0.000000 0.000000 8.374491
				CHANNELS 3 Xrotation Yrotation Zrotation
				JOINT Chest4
				{
					OFFSET 0.000000 0.000000 8.374493
					CHANNELS 3 Xrotation Yrotation Zrotation
					JOINT Neck
					{
						OFFSET 0.000000 -0.000001 12.152554
						CHANNELS 3 Xrotation Yrotation Zrotation
						JOINT Head
						{
							OFFSET 0.000000 -0.040100 7.802319
							CHANNELS 3 Xrotation Yrotation Zrotation
							End Site
							{
								OFFSET 0.000000 -0.020946 14.853096
							}
						}
					}
					JOINT RightCollar
					{
						OFFSET -2.894404 0.000000 6.791374
						CHANNELS 3 Xrotation Yrotation Zrotation
						JOINT RightShoulder
						{
							OFFSET -13.574684 0.000000 0.000000
							CHANNELS 3 Xrotation Yrotation Zrotation
							JOINT RightElbow
							{
								OFFSET -23.923903 0.000000 0.000000
								CHANNELS 3 Xrotation Yrotation Zrotation
								JOINT RightWrist
								{
									OFFSET -19.846718 -0.012765 0.000000
									CHANNELS 3 Xrotation Yrotation Zrotation
									End Site
									{
										OFFSET -14.973145 0.000000 0.000000
									}
								}
							}
						}
					}
					JOINT LeftCollar
					{
						OFFSET 2.894404 0.000000 6.791374
						CHANNELS 3 Xrotation Yrotation Zrotation
						JOINT LeftShoulder
						{
							OFFSET 13.574684 0.000000 0.000000
							CHANNELS 3 Xrotation Yrotation Zrotation
							JOINT LeftElbow
							{
								OFFSET 23.923903 0.000000 0.000000
								CHANNELS 3 Xrotation Yrotation Zrotation
								JOINT LeftWrist
								{
									OFFSET 19.846718 -0.012765 0.000000
									CHANNELS 3 Xrotation Yrotation Zrotation
									End Site
									{
										OFFSET 14.973145 0.000000 0.000000
									}
								}
							}
						}
					}
				}
			}
		}
	}
	JOINT RightHip
	{
		OFFSET -9.469263 -0.004642 0.045487
		CHANNELS 3 Xrotation Yrotation Zrotation
		JOINT RightKnee
		{
			OFFSET 0.000000 -0.002666 -40.478676
			CHANNELS 3 Xrotation Yrotation Zrotation
			JOINT RightAnkle
			{
				OFFSET 0.000000 -0.049110 -35.224068
				CHANNELS 3 Xrotation Yrotation Zrotation
				JOINT RightToe
				{
					OFFSET 0.000000 -12.539530 -6.151390
					CHANNELS 3 Xrotation Yrotation Zrotation
					End Site
					{
						OFFSET 0.000000 -5.044995 -1.291870
					}
				}
			}
		}
	}
	JOINT LeftHip
	{
		OFFSET 9.469263 -0.004642 0.045487
		CHANNELS 3 Xrotation Yrotation Zrotation
		JOINT LeftKnee
		{
			OFFSET 0.000000 -0.002666 -40.478676
			CHANNELS 3 Xrotation Yrotation Zrotation
			JOINT LeftAnkle
			{
				OFFSET 0.000000 -0.049110 -35.224068
				CHANNELS 3 Xrotation Yrotation Zrotation
				JOINT LeftToe
				{
					OFFSET 0.000000 -12.539530 -6.151390
					CHANNELS 3 Xrotation Yrotation Zrotation
					End Site
					{
						OFFSET 0.000000 -5.044995 -1.291870
					}
				}
			}
		}
	}
}
MOTION
Frames: 8
Frame Time: 0.016667
12.930813 22.787462 8.479932 26.588362 40.428187 -127.075055 17.665967 -1.355309 -1.078353 7.855362 -0.560354 -0.532190 7.855363 -0.560350 -0.532196 5.891969 -0.413505 -0.406424 20.427810 -0.186114 -0.938910 1.754197 -0.058058 -1.773335 -4.690784 -4.031733 -4.042504 31.932722 -35.889666 21.950392 61.056577 14.940153 57.310533 -56.966452 32.052606 94.891422 -7.311683 10.964624 -2.774332 23.680413 36.926219 -11.586387 62.065157 5.110549 -55.922119 -32.975853 -33.777898 -94.426040 -50.609335 5.785253 -6.346834 8.952316 2.698352 -14.670463 41.309879 -10.933039 6.537839 -0.009929 -0.006263 0.000189 -52.788459 11.623864 15.231534 9.532398 7.176452 36.725251 52.738367 8.455953 8.278015 -0.046775 -0.002010 -0.025007 
12.929685 22.786243 8.480636 26.584819 40.422624 -127.065001 17.667838 -1.347450 -1.070366 7.857275 -0.557744 -0.527840 7.857269 -0.557740 -0.527830 5.893392 -0.411600 -0.403125 20.403139 -0.192165 -0.937079 1.708305 -0.069349 -1.771847 -4.727059 -4.040983 -4.046818 31.974994 -35.889844 21.952742 61.052773 14.943095 57.313620 -56.970553 32.060481 94.886231 -7.324132 10.965025 -2.773165 23.655216 36.908532 -11.568443 62.082117 5.109155 -55.935619 -32.974043 -33.774333 -94.429080 -50.624785 5.786780 -6.338745 8.959113 2.699477 -14.676222 41.285738 -10.880141 6.495212 -0.000803 -0.031787 -0.014818 -52.794914 11.627001 15.224302 9.531748 7.179126 36.727095 52.759117 8.440697 8.303855 -0.056732 0.000745 -0.029337 
12.926389 22.785276 8.481817 26.588236 40.419485 -127.058963 17.677153 -1.343024 -1.064235 7.860323 -0.555163 -0.524757 7.860321 -0.555162 -0.524754 5.895681 -0.409702 -0.400779 20.375108 -0.196022 -0.936416 1.656164 -0.076237 -1.771823 -4.722937 -4.045385 -4.045329 31.960149 -35.900980 21.947560 61.056960 14.947290 57.318005 -56.970376 32.064958 94.880268 -7.346032 10.963164 -2.765384 23.643793 36.893571 -11.553805 62.087827 5.103233 -55.954129 -32.964218 -33.776645 -94.426027 -50.619485 5.778828 -6.355043 8.949797 2.713512 -14.656896 41.334194 -10.942839 6.553963 -0.014262 -0.005760 0.001035 -52.798954 11.624614 15.220797 9.538078 7.178756 36.703924 52.773009 8.440297 8.330475 -0.056298 0.003999 -0.029553 
12.924946 22.785215 8.483020 26.590055 40.416053 -127.049578 17.686286 -1.339681 -1.061281 7.863767 -0.552952 -0.521571 7.863768 -0.552946 -0.521568 5.898258 -0.408079 -0.398366 20.343503 -0.198343 -0.937376 1.597460 -0.079767 -1.774343 -4.709467 -4.046002 -4.047299 31.933487 -35.915211 21.945784 61.065798 14.951778 57.320314 -56.971581 32.066799 94.877413 -7.354091 10.957205 -2.768451 23.637389 36.888072 -11.543788 62.074398 5.093158 -55.968442 -32.954942 -33.779168 -94.426204 -50.597874 5.772979 -6.389090 8.926279 2.733159 -14.620710 41.406031 -11.054628 6.653552 -0.030804 0.034929 0.023024 -52.807710 11.636633 15.209822 9.547044 7.174061 36.683382 52.774949 8.444608 8.357711 -0.052084 0.005262 -0.025816 
12.921529 22.784094 8.483846 26.589312 40.414800 -127.046341 17.691669 -1.332239 -1.054361 7.865915 -0.550174 -0.518679 7.865913 -0.550172 -0.518673 5.899866 -0.406034 -0.396162 20.311613 -0.197944 -0.938484 1.538266 -0.078285 -1.776294 -4.713196 -4.053415 -4.046356 31.932914 -35.919702 21.946219 61.071986 14.945279 57.320225 -56.983671 32.068845 94.884202 -7.343756 10.949546 -2.775097 23.626415 36.881843 -11.535974 62.055281 5.084296 -55.979821 -32.959576 -33.778386 -94.427447 -50.591846 5.772705 -6.416028 8.923553 2.740677 -14.586897 41.442347 -11.111081 6.704965 -0.037021 0.046674 0.030250 -52.813260 11.639354 15.199374 9.548750 7.166327 36.676077 52.784822 8.444226 8.371280 -0.044685 0.007919 -0.021888 
12.920459 22.782743 8.484097 26.585821 40.413406 -127.038049 17.690752 -1.324893 -1.050956 7.866894 -0.548127 -0.516535 7.866897 -0.548125 -0.516531 5.900593 -0.404523 -0.394538 20.283241 -0.195542 -0.940079 1.485615 -0.073036 -1.778514 -4.699638 -4.055360 -4.052171 31.938938 -35.919989 21.966647 61.066850 14.934058 57.318531 -56.992926 32.068254 94.891244 -7.339949 10.943530 -2.780132 23.621040 36.876000 -11.528282 62.042870 5.081414 -55.991138 -32.962216 -33.779312 -94.427399 -50.596173 5.777339 -6.427939 8.930156 2.743887 -14.576915 41.393077 -11.032004 6.632963 -0.017308 0.003417 0.005165 -52.814523 11.655687 15.201916 9.540848 7.156525 36.665360 52.785573 8.435679 8.383576 -0.035415 0.006967 -0.015003 
12.917499 22.780687 8.484906 26.587416 40.413813 -127.038076 17.686872 -1.319562 -1.044510 7.865216 -0.547088 -0.514316 7.865215 -0.547083 -0.514331 5.899327 -0.403773 -0.392862 20.261304 -0.192268 -0.943423 1.444966 -0.065740 -1.783658 -4.684504 -4.059160 -4.052236 31.947445 -35.916714 21.978698 61.062035 14.923680 57.319193 -56.995613 32.067998 94.895138 -7.325807 10.944366 -2.779269 23.609963 36.864450 -11.526003 62.038444 5.090702 -55.998003 -32.955437 -33.778564 -94.427488 -50.594592 5.778656 -6.422354 8.927295 2.745204 -14.575340 41.400013 -11.024028 6.618141 -0.018172 -0.002066 0.002378 -52.805640 11.659192 15.225330 9.528721 7.148684 36.634990 52.780499 8.427746 8.396789 -0.022262 0.005474 -0.008184 
12.917053 22.779692 8.485727 26.585815 40.414793 -127.028473 17.680243 -1.316080 -1.044696 7.862646 -0.545398 -0.513057 7.862648 -0.545400 -0.513059 5.897403 -0.402527 -0.391886 20.245709 -0.191707 -0.943520 1.416004 -0.064478 -1.783699 -4.686351 -4.066804 -4.050689 31.957233 -35.920559 21.971971 61.065559 14.919070 57.311776 -56.990583 32.067591 94.898573 -7.324489 10.943646 -2.776449 23.602398 36.857869 -11.520912 62.058286 5.086170 -56.004829 -32.972766 -33.773332 -94.432078 -50.586710 5.773228 -6.429048 8.923177 2.767170 -14.564405 41.339344 -10.949862 6.537247 0.005900 -0.039823 -0.021292 -52.802447 11.681957 15.242189 9.518564 7.131935 36.603380 52.774112 8.428287 8.415865 -0.014576 0.003709 -0.002365 
